<svg xmlns="http://www.w3.org/2000/svg" xmlns:xlink="http://www.w3.org/1999/xlink" width="811" viewBox="0 0 811 346" height="346"><defs/><g transform="translate(-60.00,-180.80)"><path transform="translate(61.000000,181.800000)" stroke="#101843" fill="#ffffff" fill-rule="nonzero" stroke-width="1" d="M538.0,337.4L538.0,7.0C538.0,3.1,534.9,.0,531.0,.0L7.0,.0C3.1,.0,.0,3.1,.0,7.0L.0,337.4C.0,341.3,3.1,344.4,7.0,344.4L531.0,344.4C534.9,344.4,538.0,341.3,538.0,337.4z" id="shape1"/><g transform="translate(704.000000,195.000000)" id="shape2"><path stroke="#101843" fill="#ffffff" fill-rule="nonzero" stroke-width="1" d="M166.0,53.0L166.0,7.0C166.0,3.1,162.9,.0,159.0,.0L7.0,.0C3.1,.0,.0,3.1,.0,7.0L.0,53.0C.0,56.9,3.1,60.0,7.0,60.0L159.0,60.0C162.9,60.0,166.0,56.9,166.0,53.0z"/><text style="fill:#191919;font-family:微软雅黑,PingFang SC,Mircrosoft YaHei,Arial;font-size:10.00pt" xml:space="preserve"><tspan style="font-family:微软雅黑,PingFang SC,Mircrosoft YaHei,Arial" x="27.8" y="34.1">MAVSDK-Python</tspan></text></g><g transform="translate(425.000000,288.000000)" id="shape3"><path stroke="#101843" fill="#ffffff" fill-rule="nonzero" stroke-width="1" d="M121.0,53.0L121.0,7.0C121.0,3.1,117.9,.0,114.0,.0L7.0,.0C3.1,.0,.0,3.1,.0,7.0L.0,53.0C.0,56.9,3.1,60.0,7.0,60.0L114.0,60.0C117.9,60.0,121.0,56.9,121.0,53.0z"/><text style="fill:#191919;font-family:微软雅黑,PingFang SC,Mircrosoft YaHei,Arial;font-size:10.00pt" xml:space="preserve"><tspan style="font-family:微软雅黑,PingFang SC,Mircrosoft YaHei,Arial" x="13.3" y="34.1">mavsdk-server</tspan></text></g><g transform="translate(274.000000,288.000000)" id="shape4"><path stroke="#101843" fill="#ffffff" fill-rule="nonzero" stroke-width="1" d="M92.0,53.0L92.0,7.0C92.0,3.1,88.9,.0,85.0,.0L7.0,.0C3.1,.0,.0,3.1,.0,7.0L.0,53.0C.0,56.9,3.1,60.0,7.0,60.0L85.0,60.0C88.9,60.0,92.0,56.9,92.0,53.0z"/><text style="fill:#191919;font-family:微软雅黑,PingFang SC,Mircrosoft YaHei,Arial;font-size:10.00pt" xml:space="preserve"><tspan style="font-family:微软雅黑,PingFang SC,Mircrosoft YaHei,Arial" x="21.2" y="34.1">mavsdk</tspan></text></g><g transform="translate(83.000000,216.000000)" id="shape5"><path stroke="#101843" fill="#ffffff" fill-rule="nonzero" stroke-width="1" d="M106.0,42.0L106.0,7.0C106.0,3.1,102.9,.0,99.0,.0L7.0,.0C3.1,.0,.0,3.1,.0,7.0L.0,42.0C.0,45.9,3.1,49.0,7.0,49.0L99.0,49.0C102.9,49.0,106.0,45.9,106.0,42.0z"/><text style="fill:#191919;font-family:微软雅黑,PingFang SC,Mircrosoft YaHei,Arial;font-size:10.00pt" xml:space="preserve"><tspan style="font-family:微软雅黑,PingFang SC,Mircrosoft YaHei,Arial" x="21.8" y="28.6">telemetry</tspan></text></g><g transform="translate(704.000000,304.000000)" id="shape6"><path stroke="#101843" fill="#ffffff" fill-rule="nonzero" stroke-width="1" d="M166.0,53.0L166.0,7.0C166.0,3.1,162.9,.0,159.0,.0L7.0,.0C3.1,.0,.0,3.1,.0,7.0L.0,53.0C.0,56.9,3.1,60.0,7.0,60.0L159.0,60.0C162.9,60.0,166.0,56.9,166.0,53.0z"/><text style="fill:#191919;font-family:微软雅黑,PingFang SC,Mircrosoft YaHei,Arial;font-size:10.00pt" xml:space="preserve"><tspan style="font-family:微软雅黑,PingFang SC,Mircrosoft YaHei,Arial" x="36.2" y="34.1">MAVSDK-Rust</tspan></text></g><g transform="translate(704.000000,413.000000)" id="shape7"><path stroke="#101843" fill="#ffffff" fill-rule="nonzero" stroke-width="1" d="M166.0,53.0L166.0,7.0C166.0,3.1,162.9,.0,159.0,.0L7.0,.0C3.1,.0,.0,3.1,.0,7.0L.0,53.0C.0,56.9,3.1,60.0,7.0,60.0L159.0,60.0C162.9,60.0,166.0,56.9,166.0,53.0z"/><text style="fill:#191919;font-family:微软雅黑,PingFang SC,Mircrosoft YaHei,Arial;font-size:10.00pt" xml:space="preserve"><tspan style="font-family:微软雅黑,PingFang SC,Mircrosoft YaHei,Arial" x="36.6" y="34.1">MAVSDK-Java</tspan></text></g><g transform="translate(546.000000,318.000000)" id="shape8"><path stroke="#191919" fill="none" stroke-width="1" d="M6.0,-0.5C23.4,-2.0,40.5,-4.6,55.5,-17.8C72.1,-32.5,85.9,-60.5,102.5,-75.2C117.7,-88.6,135.2,-91.1,152.9,-92.6"/><path stroke-linecap="round" stroke="#191919" fill="#191919" stroke-width="1" d="M6.2,2.5L.0,.0L5.7,-3.5L6.2,2.5"/><path stroke-linecap="round" stroke="#191919" fill="#191919" stroke-width="1" d="M151.8,-95.5L158.0,-93.0L152.3,-89.5L151.8,-95.5"/><rect x="66.2" fill="#ffffff" y="-61.5" width="34.4" height="18.4"/><text style="fill:#191919;font-family:微软雅黑,PingFang SC,Mircrosoft YaHei,Arial;font-size:10.00pt" xml:space="preserve"><tspan style="font-family:微软雅黑,PingFang SC,Mircrosoft YaHei,Arial" x="66.2" y="-47.1">gRPC</tspan></text></g><g transform="translate(546.000000,318.000000)" id="shape9"><path stroke="#191919" fill="none" stroke-width="1" d="M6.0,.1C23.4,.3,40.5,.8,55.5,3.1C72.1,5.6,85.9,10.4,102.5,12.9C117.7,15.2,135.1,15.7,152.7,15.9"/><path stroke-linecap="round" stroke="#191919" fill="#191919" stroke-width="1" d="M6.0,3.1L.0,.0L6.0,-2.9L6.0,3.1"/><path stroke-linecap="round" stroke="#191919" fill="#191919" stroke-width="1" d="M152.0,12.9L158.0,16.0L152.0,18.9L152.0,12.9"/><rect x="72.8" fill="#ffffff" y="0.0" width="34.4" height="18.4"/><text style="fill:#191919;font-family:微软雅黑,PingFang SC,Mircrosoft YaHei,Arial;font-size:10.00pt" xml:space="preserve"><tspan style="font-family:微软雅黑,PingFang SC,Mircrosoft YaHei,Arial" x="72.8" y="14.4">gRPC</tspan></text></g><g transform="translate(546.000000,318.000000)" id="shape10"><path stroke="#191919" fill="none" stroke-width="1" d="M6.0,.7C23.4,2.7,40.5,6.1,55.5,23.9C72.1,43.7,85.9,81.3,102.5,101.1C117.7,119.2,135.2,122.4,152.9,124.4"/><path stroke-linecap="round" stroke="#191919" fill="#191919" stroke-width="1" d="M5.6,3.6L.0,.0L6.3,-2.3L5.6,3.6"/><path stroke-linecap="round" stroke="#191919" fill="#191919" stroke-width="1" d="M152.4,121.4L158.0,125.0L151.7,127.3L152.4,121.4"/><rect x="63.7" fill="#ffffff" y="53.9" width="34.4" height="18.4"/><text style="fill:#191919;font-family:微软雅黑,PingFang SC,Mircrosoft YaHei,Arial;font-size:10.00pt" xml:space="preserve"><tspan style="font-family:微软雅黑,PingFang SC,Mircrosoft YaHei,Arial" x="63.7" y="68.3">gRPC</tspan></text></g><g transform="translate(366.000000,318.000000)" id="shape11"><path stroke="#191919" fill="none" stroke-width="1" d="M6.0,.0C8.2,.0,10.9,.0,14.8,.0C22.9,.0,36.1,.0,44.3,.0C48.8,.0,51.9,.0,54.3,.0"/><path stroke-linecap="round" stroke="#191919" fill="#191919" stroke-width="1" d="M6.0,3.0L.0,.0L6.0,-3.0L6.0,3.0"/><path stroke-linecap="round" stroke="#191919" fill="#191919" stroke-width="1" d="M53.0,-3.0L59.0,.0L53.0,3.0L53.0,-3.0"/></g><g transform="translate(189.000000,240.500000)" id="shape12"><path stroke="#191919" fill="none" stroke-width="1" d="M5.9,.8C14.4,2.2,22.6,4.9,29.8,14.8C38.8,27.1,46.2,50.4,55.2,62.7C62.6,72.9,71.1,75.5,79.8,76.8"/><path stroke-linecap="round" stroke="#191919" fill="#191919" stroke-width="1" d="M5.5,3.8L.0,.0L6.3,-2.2L5.5,3.8"/><path stroke-linecap="round" stroke="#191919" fill="#191919" stroke-width="1" d="M79.4,73.7L85.0,77.5L78.7,79.7L79.4,73.7"/></g><g transform="translate(83.000000,293.500000)" id="shape13"><path stroke="#101843" fill="#ffffff" fill-rule="nonzero" stroke-width="1" d="M106.0,42.0L106.0,7.0C106.0,3.1,102.9,.0,99.0,.0L7.0,.0C3.1,.0,.0,3.1,.0,7.0L.0,42.0C.0,45.9,3.1,49.0,7.0,49.0L99.0,49.0C102.9,49.0,106.0,45.9,106.0,42.0z"/><text style="fill:#191919;font-family:微软雅黑,PingFang SC,Mircrosoft YaHei,Arial;font-size:10.00pt" xml:space="preserve"><tspan style="font-family:微软雅黑,PingFang SC,Mircrosoft YaHei,Arial" x="24.6" y="28.6">offboard</tspan></text></g><g transform="translate(83.000000,372.350394)" id="shape14"><path stroke="#101843" fill="#ffffff" fill-rule="nonzero" stroke-width="1" d="M106.0,42.0L106.0,7.0C106.0,3.1,102.9,.0,99.0,.0L7.0,.0C3.1,.0,.0,3.1,.0,7.0L.0,42.0C.0,45.9,3.1,49.0,7.0,49.0L99.0,49.0C102.9,49.0,106.0,45.9,106.0,42.0z"/><text style="fill:#191919;font-family:微软雅黑,PingFang SC,Mircrosoft YaHei,Arial;font-size:10.00pt" xml:space="preserve"><tspan style="font-family:微软雅黑,PingFang SC,Mircrosoft YaHei,Arial" x="32.6" y="28.6">param</tspan></text></g><g transform="translate(83.000000,451.200787)" id="shape15"><path stroke="#101843" fill="#ffffff" fill-rule="nonzero" stroke-width="1" d="M106.0,42.0L106.0,7.0C106.0,3.1,102.9,.0,99.0,.0L7.0,.0C3.1,.0,.0,3.1,.0,7.0L.0,42.0C.0,45.9,3.1,49.0,7.0,49.0L99.0,49.0C102.9,49.0,106.0,45.9,106.0,42.0z"/><text style="fill:#191919;font-family:微软雅黑,PingFang SC,Mircrosoft YaHei,Arial;font-size:10.00pt" xml:space="preserve"><tspan style="font-family:微软雅黑,PingFang SC,Mircrosoft YaHei,Arial" x="27.8" y="28.6">mission</tspan></text></g><g transform="translate(189.000000,318.000000)" id="shape16"><path stroke="#191919" fill="none" stroke-width="1" d="M6.0,.0C9.5,.0,14.1,.0,21.3,.0C33.1,.0,51.9,.0,63.8,.0C71.4,.0,76.1,.0,79.8,.0"/><path stroke-linecap="round" stroke="#191919" fill="#191919" stroke-width="1" d="M6.0,3.0L.0,.0L6.0,-3.0L6.0,3.0"/><path stroke-linecap="round" stroke="#191919" fill="#191919" stroke-width="1" d="M79.0,-3.0L85.0,.0L79.0,3.0L79.0,-3.0"/></g><g transform="translate(189.000000,396.850394)" id="shape17"><path stroke="#191919" fill="none" stroke-width="1" d="M5.9,-0.8C14.4,-2.2,22.6,-5.0,29.8,-15.1C38.8,-27.6,46.2,-51.3,55.2,-63.8C62.9,-74.5,71.7,-77.0,80.7,-78.3"/><path stroke-linecap="round" stroke="#191919" fill="#191919" stroke-width="1" d="M6.4,2.2L.0,.0L5.5,-3.8L6.4,2.2"/><path stroke-linecap="round" stroke="#191919" fill="#191919" stroke-width="1" d="M78.7,-81.0L85.0,-78.9L79.4,-75.1L78.7,-81.0"/></g><g transform="translate(189.000000,475.700787)" id="shape18"><path stroke="#191919" fill="none" stroke-width="1" d="M5.9,-1.2C20.9,-4.4,35.0,-9.4,41.4,-30.2C48.8,-53.6,46.4,-97.1,52.0,-121.7C57.0,-143.5,68.3,-150.5,80.4,-155.7"/><path stroke-linecap="round" stroke="#191919" fill="#191919" stroke-width="1" d="M6.5,1.7L.0,.0L5.3,-4.1L6.5,1.7"/><path stroke-linecap="round" stroke="#191919" fill="#191919" stroke-width="1" d="M78.3,-158.1L85.0,-157.7L80.6,-152.6L78.3,-158.1"/></g></g></svg>